<svg class="contactarea__img"  viewBox="0 0 1024 348.8">

<g>
	<path d="M173.9,228c0,29.3-23.8,53.1-53.1,53.1S67.8,257.2,67.8,228V7.3H0V228c0,66.6,54.2,120.8,120.8,120.8
		c66.6,0,120.8-54.2,120.8-120.8V7.3h-67.8L173.9,228L173.9,228z"/>
	<path d="M903.2,7.3c-66.6,0-120.8,54.2-120.8,120.8v111.4v67.8v41.6h67.8v-41.5h106.1v41.6h67.8v-41.6v-67.8V128.1
		C1024,61.5,969.8,7.3,903.2,7.3z M850.1,239.5V128.1c0-29.3,23.8-53.1,53.1-53.1s53.1,23.8,53.1,53.1v111.4H850.1z"/>
	<path d="M599,7.3c-34.1,0-65,14.2-87,37c-22-22.8-52.8-37-87-37c-66.6,0-120.8,54.2-120.8,120.8v220.7H372V128.1
		C372,98.8,395.8,75,425,75s53.1,23.8,53.1,53.1v220.7h67.8V128.1c0-29.3,23.8-53.1,53.1-53.1S652,98.8,652,128.1v220.7h67.8V128.1
		C719.8,61.5,665.6,7.3,599,7.3z"/>
</g>
</svg>
